<svg xmlns="http://www.w3.org/2000/svg" xmlns:xlink="http://www.w3.org/1999/xlink" version="1.1" width="66" height="70" enable-background="new 0 0 170 220" xml:space="preserve"><rect id="backgroundrect" width="100%" height="100%" x="0" y="0" fill="none" stroke="none" class="" style=""/>
<g class="currentLayer" style=""><g class=""><polygon fill="#FFFFFF" points="17.30696541070938,0.6568238139152527 17.30696541070938,11.447545051574707 28.34310394525528,11.447545051574707 28.34310394525528,39.6098518371582 38.96520096063614,39.6098518371582 38.96520096063614,11.27876091003418 38.96520096063614,0.6568238139152527 " id="svg_2" class=""/><g id="svg_3" class="">
		<path fill="#FFFFFF" d="M11.476731369769603,37.10499949217707 c0,-8.400490054816007 4.668031205505132,-15.7103128708601 11.551452810704708,-19.473755587488412 v-0.0013165949285030435 H7.266962972378764 c-4.031150352090597,5.446138808250427 -6.416557043552399,12.179205272614956 -6.416557043552399,19.475072182416916 c0,14.475697919905187 9.37740349176526,26.757773142933846 22.386239115327598,31.11280584743619 v-11.528807377934456 C16.23982072911265,52.95653911236795 11.476731369769603,45.58922498444588 11.476731369769603,37.10499949217707 " id="svg_4"/>
		<path fill="#FFFFFF" d="M44.282239430284534,6.068029512622658 v11.561020067185163 c6.884825973123312,3.765637041509152 11.55847465032339,11.074055489629506 11.55847465032339,19.477617599278688 c0,12.24635161396861 -9.934937557488679,22.17874375459552 -22.1852389562428,22.17874375459552 c-1.8269948957860471,0 -3.602203724384308,-0.2223289969265462 -5.300523409157991,-0.638197448343042 v10.835664034575224 c1.7267581352293493,0.27806484889984445 3.4952962161898613,0.42806889775395685 5.300523409157991,0.42806889775395685 c18.117136173158883,0 32.8059469254911,-14.68758193039894 32.8059469254911,-32.80427923858166 C66.46142204985621,22.706454035082174 57.18381645367148,10.483186718859983 44.282239430284534,6.068029512622658 " id="svg_5"/>
	</g></g></g></svg>
